<svg width="32" height="32" viewBox="0 0 32 32" fill="none" xmlns="http://www.w3.org/2000/svg">
<path d="M16.1182 13.6376C16.3657 13.6357 16.6431 13.6536 16.8643 13.705V13.706C17.6761 13.9017 18.3756 14.4142 18.8076 15.1288L18.8096 15.1308C19.6244 16.4524 19.0526 17.8691 18.0986 19.0634C17.125 20.2821 15.9499 21.2698 14.7695 22.3369C13.5118 23.4737 12.2833 24.6179 10.9287 25.5966L10.3398 26.0048C8.86427 26.9763 7.07865 27.8542 5.3291 27.9277C4.97613 27.9424 4.57542 27.959 4.19629 28.0761C3.68978 28.2328 3.25139 28.5043 2.84082 28.7568L2.83594 28.7597C2.68741 28.8554 2.54381 28.961 2.4043 29.0703C2.44302 29.0213 2.48169 28.9717 2.52246 28.9228C2.71791 28.6882 2.94929 28.4667 3.19336 28.2099C3.4288 27.9622 3.66792 27.6891 3.83496 27.3828C4.04214 27.0026 4.18047 26.5932 4.30371 26.1962C4.429 25.7927 4.53729 25.4067 4.68945 25.0361C5.40925 23.2835 6.60913 21.6328 7.86621 20.1933C8.63777 19.31 9.54111 18.5037 10.4072 17.664C11.585 16.522 12.7168 15.2475 14.043 14.3632L14.3105 14.1913C14.8944 13.8333 15.4376 13.6745 16.1182 13.6376Z" fill="#FEF9EC" stroke="#C8A04B" stroke-width="0.5"/>
<path d="M12.9177 15.6285C13.0779 15.6477 13.2256 15.8558 13.3512 15.9636C13.525 16.1128 13.7066 16.2469 13.9068 16.36C14.0522 16.441 14.2634 16.4778 14.3809 16.5973C14.4618 16.6795 14.3615 16.7903 14.2956 16.8384C13.9264 16.7922 12.8442 16.1469 12.8179 15.7683C12.8395 15.6915 12.8558 15.6851 12.9177 15.6285Z" fill="#C8A04B"/>
<path d="M15.6037 18.9435C15.7863 18.9731 16.1393 19.3764 16.3537 19.5061C16.5269 19.6112 16.9007 19.7086 16.9208 19.8879C16.8962 19.9603 16.8725 19.9738 16.8156 20.0291C16.514 20.0213 15.4603 19.3681 15.4866 19.0691C15.5134 19.0049 15.5467 18.9883 15.6037 18.9435Z" fill="#C8A04B"/>
<path d="M13.9773 20.5004C14.0036 20.4991 14.0859 20.497 14.1015 20.5094C14.3069 20.6735 14.4982 20.887 14.7239 21.0298C14.8625 21.1175 15.0693 21.1725 15.1974 21.2768C15.241 21.3123 15.2459 21.3501 15.2484 21.4008C15.2224 21.4794 15.2118 21.4833 15.1495 21.5427C14.8871 21.5456 13.9003 20.9079 13.8835 20.6323C13.8999 20.5694 13.9299 20.549 13.9773 20.5004Z" fill="#C8A04B"/>
<path d="M10.4362 17.9474C10.4578 17.945 10.5536 17.9374 10.5675 17.95C10.8669 18.2203 11.0913 18.4608 11.4726 18.6269C11.5903 18.6782 11.5322 18.8139 11.4622 18.9015C11.1733 18.9205 10.4751 18.3945 10.3674 18.1124C10.345 18.0538 10.4022 17.9861 10.4362 17.9474Z" fill="#C8A04B"/>
<path d="M8.37451 21.2562C8.39612 21.2538 8.49192 21.2462 8.50582 21.2588C8.80519 21.5291 9.0296 21.7696 9.41091 21.9357C9.52858 21.9869 9.47046 22.1227 9.40049 22.2102C9.11155 22.2293 8.41342 21.7033 8.30568 21.4212C8.2833 21.3626 8.34054 21.2948 8.37451 21.2562Z" fill="#C8A04B"/>
<path d="M5.98745 23.275C6.20836 23.2735 6.30396 23.6047 6.46086 23.7494C6.61285 23.8896 6.90827 24.0032 6.67507 24.2147C6.52458 24.2278 6.39701 24.1118 6.28951 24.0043C6.14636 23.8609 5.91646 23.6384 5.89415 23.4262C5.8878 23.3659 5.94712 23.3141 5.98745 23.275Z" fill="#C8A04B"/>
<path d="M8.38228 25.6919C8.55587 25.6926 8.69433 25.8808 8.84122 25.9807C8.94648 26.0523 9.24607 26.2093 9.2677 26.325C9.24781 26.4006 9.22104 26.4147 9.16104 26.4715C8.93539 26.4732 8.37092 26.1054 8.3042 25.8652C8.28581 25.7992 8.34239 25.7387 8.38228 25.6919Z" fill="#C8A04B"/>
<path d="M6.4856 26.8241C6.55409 26.8467 6.63729 26.9127 6.69221 26.9638C6.82978 27.0916 7.25122 27.3047 6.91776 27.4733C6.737 27.4339 6.31275 27.1601 6.35492 26.9368C6.39311 26.8713 6.41762 26.8646 6.4856 26.8241Z" fill="#C8A04B"/>
<path d="M20.1231 11.6643C20.3055 11.3003 20.5738 10.8264 20.6843 10.439C20.7218 10.307 20.6351 10.0893 20.6989 9.89856C20.7816 9.64525 20.9792 9.38625 20.977 9.11032C20.9696 8.16343 20.3004 7.54911 20.7059 6.58327C20.9766 5.93826 21.7121 6.18504 21.8373 5.90933C22.2325 5.03927 21.3296 3.99936 21.9933 3.11207C22.1226 2.88076 22.2806 2.82202 22.476 2.71685C22.805 2.53964 23.3502 2.96061 23.4834 2.62539C23.6616 2.17774 23.8721 1.72726 24.3674 1.55084C24.7641 1.40956 25.0494 1.56523 25.375 1.80585L25.4009 1.80648C25.5706 1.80927 25.7232 1.76591 25.8888 1.75035C26.6313 1.68136 27.1355 2.28086 27.1286 2.99402C27.1246 3.42222 26.9579 3.75771 26.7279 4.10999C26.6778 4.21016 26.3947 4.51647 26.5297 4.62572C26.768 4.81845 27.0321 4.8943 27.058 5.25233C27.0883 5.67314 26.8822 5.95771 26.5651 6.21062C26.4526 6.29182 26.2034 6.4848 26.2428 6.64756C26.3819 7.22342 26.3819 7.33889 26.0655 7.79594C25.6374 8.41438 24.313 8.27483 24.0862 8.86543C24.1659 9.17161 24.2248 9.43457 24.0483 9.7275C23.7561 10.2118 23.0986 10.1803 22.728 10.4728C22.4938 10.6577 22.5234 11.1439 22.2629 11.4358C21.9513 11.7848 21.4186 11.8023 21.1315 12.0615C20.8369 12.3274 20.4689 12.9627 20.2038 13.3038C19.9958 13.5712 19.7683 13.8895 19.5749 14.1683C19.5411 14.2171 19.5385 14.2564 19.5457 14.3122C19.5701 14.3434 19.5977 14.3789 19.6432 14.3735C20.3629 14.2881 21.2654 13.7779 21.7542 13.3053C22.0214 13.0508 22.2392 12.7493 22.3968 12.4157C22.6588 11.8561 22.7369 11.0261 23.5378 11.0315C23.7787 11.0332 23.9669 11.0587 24.1576 10.8772C24.7732 10.2915 24.4213 8.87775 25.6002 8.87304C25.8775 8.87193 26.0803 8.89391 26.2979 8.67877C26.7767 8.20524 26.6328 7.43506 27.265 7.02452C27.4084 6.93141 27.5682 6.87681 27.7407 6.87763C28.1799 6.8797 28.3486 7.23019 28.5239 7.25006C28.6893 7.26881 28.9135 7.02931 29.0545 6.95233C29.6097 6.64882 30.2547 6.65583 30.7084 7.13508C30.9119 7.35018 31.0111 7.61242 30.999 7.90827C30.9683 8.67268 30.1744 9.21268 30.1698 9.43981C30.1676 9.54184 30.278 9.64386 30.342 9.71435C30.5271 9.91854 30.6525 10.1194 30.6353 10.4102C30.6212 10.649 30.4828 10.911 30.3006 11.0658C30.14 11.2024 29.9459 11.3026 29.7468 11.37C29.4671 11.4648 28.7981 11.5266 28.6643 11.7846C28.6608 11.8629 28.7157 11.9711 28.7712 12.0161C30.1537 13.1377 29.2414 14.6497 27.6012 14.0789C27.3692 13.9982 26.2938 13.504 26.2278 13.9073C26.2692 14.0876 26.3986 14.1463 26.4753 14.2878C26.7136 14.7269 26.4888 15.2142 25.9886 15.298C25.6705 15.3513 25.4204 15.2974 25.1203 15.1972C24.6944 15.08 23.6412 14.3142 23.2817 14.7642C23.1818 14.8894 23.227 15.2985 22.8175 15.3894C22.434 15.4745 22.1513 15.3176 21.7985 15.2132C21.1085 15.0092 20.2604 15.4215 19.7076 15.8173C19.4748 14.7739 18.6528 13.8235 17.682 13.3877C17.6089 13.3549 17.4661 13.2732 17.398 13.2635C17.4222 13.2537 17.4337 13.2488 17.4509 13.227C17.6753 12.9438 17.8213 12.585 17.7936 12.2225C17.7734 11.8258 17.4418 11.6123 17.1643 11.383C16.9138 11.1758 16.6402 10.7568 16.8609 10.4382C16.9399 10.3243 17.1014 10.2428 17.1758 10.1563C17.3517 9.95211 16.8335 9.66934 16.6951 9.59456C16.4007 9.46578 16.1782 9.36621 15.8906 9.209C15.3463 8.91146 14.7471 7.88805 15.5282 7.50197C15.6655 7.43413 15.8562 7.44632 15.9543 7.29649C15.9695 7.13054 15.6581 6.79947 15.5273 6.6641C14.7433 5.85244 14.8736 3.95695 16.3759 4.44687C16.5321 4.49779 16.7734 4.67909 16.9323 4.55771C16.9913 4.42612 16.9452 4.26248 16.9395 4.12199C16.9195 3.63474 17.0818 3.08358 17.4777 2.77437C17.6949 2.60394 17.9719 2.52846 18.2457 2.56504C18.8602 2.65021 19.228 3.23637 19.3627 3.80111C19.4003 3.91433 19.4069 4.45535 19.4981 4.51346C19.7869 4.69744 20.1753 4.53534 20.4376 4.93498C20.6142 5.20414 20.7113 5.51846 20.6201 5.83971C20.6032 5.89884 20.4284 6.03724 20.3923 6.0972C20.1033 6.45858 19.9002 6.85171 19.8369 7.31011C19.769 7.80253 19.9061 8.03202 20.211 8.39044C20.4946 8.72391 20.4758 9.25279 20.2188 9.59693C20.0843 9.77694 19.9007 9.98577 19.8356 10.2037C19.7986 10.4436 19.9805 10.6593 19.9237 10.9525C19.8384 11.394 19.5355 11.4869 19.2842 11.7918C19.1508 11.9537 19.0737 12.2285 18.8807 12.3685C18.8513 12.4443 18.7788 13.2084 18.8014 13.2821L18.8252 13.2927C18.9866 13.1954 19.1447 12.9289 19.2737 12.7845C19.5731 12.4497 19.893 12.0525 20.1231 11.6643Z" fill="#3C8842"/>
<path d="M28.3098 9.32495C28.613 9.37113 28.5366 9.55944 28.3662 9.72346C28.147 9.9347 27.929 10.1395 27.6996 10.3404C26.477 11.4066 25.1761 12.3793 23.8077 13.2505C22.8947 13.8372 21.8169 14.4657 20.8214 14.8912C20.7181 14.8885 20.5988 14.8306 20.6265 14.7195C20.6758 14.5222 21.1215 14.3702 21.2943 14.2871C21.5872 14.1452 21.8752 13.9933 22.1578 13.8315C23.6821 12.962 25.1367 11.9754 26.5083 10.8804C26.8396 10.6168 27.1627 10.343 27.4772 10.0594C27.643 9.90869 28.1597 9.41869 28.3098 9.32495Z" fill="#FCF9EB"/>
<path d="M24.0002 5.9377C24.2974 5.86203 24.3005 6.06523 24.2075 6.2827C24.0879 6.56268 23.967 6.83627 23.834 7.11068C23.1237 8.56905 22.3048 9.97192 21.3842 11.3075C20.7721 12.2037 20.0245 13.2026 19.2735 13.9825C19.1774 14.0202 19.0449 14.0134 19.0272 13.9003C18.9956 13.6994 19.3468 13.3857 19.4735 13.2418C19.688 12.997 19.8941 12.7448 20.0912 12.4857C21.1561 11.0908 22.1111 9.61525 22.9474 8.07235C23.1498 7.7004 23.3406 7.32234 23.5197 6.9386C23.6136 6.73517 23.8985 6.08251 24.0002 5.9377Z" fill="#FCF9EB"/>
<path d="M17.2075 4.87593C17.3663 4.6632 17.4825 4.7995 17.5417 4.99762C17.618 5.2526 17.6899 5.50395 17.754 5.76243C18.0923 7.13809 18.3259 8.53495 18.4528 9.94139C18.5418 10.8821 18.5967 11.966 18.5263 12.9031C18.4824 12.9809 18.3888 13.0482 18.3132 12.981C18.179 12.8618 18.2406 12.4582 18.2456 12.2917C18.2533 12.0091 18.2511 11.726 18.2391 11.4431C18.1766 9.91813 17.9943 8.39798 17.6938 6.89656C17.6219 6.53419 17.5387 6.17397 17.4444 5.81622C17.3937 5.62714 17.22 5.02941 17.2075 4.87593Z" fill="#FCF9EB"/>
</svg>
