<svg width="24" height="24" viewBox="0 0 24 24" fill="none" xmlns="http://www.w3.org/2000/svg">
<path d="M19.8263 5.72701C19.0998 4.55378 17.3986 3.57794 16.1649 2.99022C15.1513 2.50458 13.7408 1.93634 12.598 1.9661C12.287 1.97482 11.9791 2.03155 11.6853 2.13428C10.2298 2.64908 9.43592 4.38822 9.03132 5.75761C8.82932 6.44125 8.66484 7.11772 8.47914 7.80519C8.14852 8.96068 7.57691 9.98569 6.88035 10.9577C6.62792 11.3099 6.36814 11.6685 6.12785 12.0295C4.97273 13.798 4.50861 15.8206 5.23237 17.852C5.41922 18.4194 5.52876 19.0139 5.85428 19.5593C6.62217 20.6506 8.5153 21.4235 9.60629 21.3916C10.4767 21.2719 10.5142 21.2411 10.9726 21.0722C12.524 20.5007 13.4977 19.6154 14.3624 18.3078C14.9778 17.3774 15.2118 16.4148 15.6024 15.3907C15.7681 14.9515 15.9669 14.5254 16.1971 14.1164C16.6654 13.2972 17.2977 12.56 17.9285 11.8395C19.2296 10.3531 21.066 7.72903 19.8263 5.72701Z" fill="#7E633B"/>
<path d="M16.2619 3.69106C15.3124 3.2163 13.3512 2.37549 12.2862 2.61279C12.1479 2.58498 11.78 2.73492 11.6477 2.80473C10.5186 3.40068 9.95228 4.7451 9.59321 5.90428C9.42742 6.43951 9.31249 7.0018 9.1704 7.53924C9.08936 7.84182 8.9997 8.14202 8.90151 8.43948L9.63296 8.96493C9.73359 9.03625 11.3562 10.1354 10.4347 10.0109C10.1092 9.96687 9.31196 9.5246 9.01951 9.33541C8.8932 9.25228 8.77077 9.16339 8.65259 9.06904C8.42072 9.58811 8.18979 10.0464 7.88467 10.5319C7.45161 11.2259 6.91653 11.8502 6.48329 12.5427C5.96447 13.372 5.62168 14.3877 5.51001 15.3577C5.45289 15.8537 5.48645 16.408 5.6097 16.8889C5.62682 16.9555 5.6664 17.0607 5.67635 17.1228C5.71344 17.4805 6.06882 18.3332 6.19773 18.7018C6.94171 19.1575 7.754 19.5624 8.39968 20.1524C8.45932 20.2069 8.54306 20.2981 8.46817 20.3783C8.40448 20.4466 8.23908 20.3951 8.15793 20.3815C7.56474 20.2573 7.1563 19.7271 6.62634 19.4451C6.92984 19.8087 7.76578 20.8092 9.19369 20.9135C9.93143 20.8247 10.501 20.4117 11.1491 20.1767C12.2946 19.7685 13.2124 18.9977 13.8638 17.9743C14.1076 17.5912 14.2516 17.3096 14.4367 16.894C13.8585 16.758 13.0481 16.4279 12.5344 16.1128C12.4176 16.0646 12.0998 15.8455 12.0731 15.7164C12.1167 15.555 12.6475 15.7139 12.7714 15.7421C12.8913 15.7688 13.0494 15.8194 13.1693 15.8544C13.4837 15.9461 13.7956 16.0459 14.1047 16.154C14.273 16.2128 14.4789 16.2737 14.6404 16.3412C15.0012 15.2705 15.3281 14.3307 15.9616 13.3701C16.341 12.7947 16.7267 12.3769 17.15 11.8465C17.0072 11.8001 16.8416 11.7692 16.7032 11.722C16.2702 11.5742 15.848 11.4298 15.4348 11.2333C15.1655 11.1046 13.9411 10.4922 13.9132 10.2126C13.9234 10.1883 13.9284 10.1778 13.9536 10.1674C14.1786 10.0741 15.6155 10.6229 15.9151 10.7363C16.4713 10.9484 17.0305 11.1525 17.5925 11.3486C17.6436 11.2684 17.747 11.1474 17.808 11.0725C17.9233 10.9324 18.0367 10.7907 18.1481 10.6475C19.0017 9.54856 19.9924 7.83425 19.4933 6.39186C19.4704 6.32563 19.4492 6.27785 19.3848 6.25001C19.2201 5.64607 18.1009 4.78835 17.5701 4.4487C17.24 4.23742 16.6094 3.86481 16.2619 3.69106Z" fill="#EBD2AA"/>
<path d="M14.4367 16.8942C13.8585 16.7581 13.0481 16.428 12.5344 16.1129L12.5717 16.1511C12.557 16.2184 12.4741 16.3546 12.4368 16.4188C12.2842 16.686 12.1128 16.942 11.9239 17.1848C11.82 17.3181 11.67 17.4827 11.5777 17.6112C11.5296 17.5843 11.4688 17.5479 11.4191 17.5273C11.5789 17.6351 12.5161 18.1399 12.3946 18.3774C12.1982 18.5338 11.2526 18.1591 11.0185 18.0594C10.9667 18.0373 10.9009 18.0028 10.8456 17.9862C10.9197 18.0261 10.9719 18.0513 11.0492 18.0843C10.783 18.3091 10.5084 18.4753 10.2006 18.6363C10.1234 18.6766 9.83626 18.7796 9.80515 18.807C9.60916 18.7295 8.54734 18.2591 8.42258 18.459C8.38855 18.614 8.79582 18.8961 8.91747 18.9879C7.85701 19.1662 6.6654 18.7079 6.06724 17.7999C6.00937 17.7109 5.95514 17.6197 5.90474 17.5262C5.84511 17.4146 5.76195 17.1977 5.67635 17.1229C5.71344 17.4806 6.06881 18.3333 6.19773 18.7019C6.94171 19.1576 7.754 19.5625 8.39967 20.1525C8.45932 20.2071 8.54306 20.2982 8.46817 20.3785C8.40448 20.4467 8.23908 20.3952 8.15793 20.3816C7.56473 20.2575 7.08947 19.6934 6.55951 19.4114L6.57056 19.4232C6.96818 19.8498 7.98377 20.9392 9.19369 20.9136C10.1246 20.736 10.5333 20.6261 11.1813 20.3911C12.3268 19.983 13.2124 18.9978 13.8638 17.9744C14.1076 17.5913 14.2516 17.3097 14.4367 16.8942Z" fill="#D0B188"/>
<path d="M12.2861 2.61279C13.3511 2.37549 15.3123 3.2163 16.2618 3.69106C16.6093 3.86481 17.2399 4.23742 17.57 4.4487C18.1008 4.78835 19.22 5.64607 19.3847 6.25001C19.5209 7.22094 18.0545 6.95669 17.5199 6.83802C16.032 6.47858 14.5227 5.73249 13.2911 4.81645C12.8151 4.46246 11.9058 3.716 11.9484 3.02989C11.9597 2.84796 12.1499 2.71244 12.2861 2.61279Z" fill="#F4E8CC"/>
<path d="M17.15 11.8463C16.7267 12.3768 16.341 12.7945 15.9615 13.37C15.3281 14.3306 15.0012 15.2703 14.6403 16.3411C14.4788 16.2736 14.2729 16.2126 14.1046 16.1539C13.7956 16.0458 13.4836 15.9459 13.1693 15.8543C13.0494 15.8192 12.8913 15.7687 12.7714 15.742C12.7842 15.7038 12.8045 15.6654 12.8213 15.6284C13.0217 15.1868 13.1721 14.7231 13.3562 14.2744C13.3894 14.1935 13.4256 14.1062 13.4502 14.0231C13.438 13.996 13.4091 13.9887 13.3771 13.9716C13.5918 14.035 14.3057 14.3454 14.4867 14.1935C14.6145 13.9675 13.7304 13.4834 13.5822 13.3755L13.5739 13.3695C13.6184 13.3888 13.6822 13.4251 13.7267 13.4487C14.0224 12.876 14.3947 12.3463 14.8331 11.874C15.0298 11.6586 15.2448 11.4541 15.4348 11.2332C15.848 11.4297 16.2701 11.5741 16.7031 11.7219C16.8416 11.7691 17.0071 11.8 17.15 11.8463Z" fill="#D0B188"/>
<path d="M19.3848 6.25C19.4491 6.27784 19.4704 6.32562 19.4933 6.39185C19.9923 7.83425 19.0016 9.54855 18.148 10.6475C18.0367 10.7907 17.9233 10.9324 17.8079 11.0725C17.7469 11.1474 17.6435 11.2684 17.5925 11.3486C17.0305 11.1525 16.4713 10.9484 15.9151 10.7363C15.9632 10.7216 16.1047 10.5389 16.1439 10.4907C16.5378 10.0155 16.8524 9.47989 17.0757 8.90448C17.1082 8.82244 17.1762 8.66282 17.1934 8.58513C17.1774 8.55924 17.1331 8.54177 17.104 8.52687C17.1842 8.54528 17.304 8.60094 17.3881 8.62565C17.5555 8.67484 18.3739 8.91148 18.4996 8.77745C18.5152 8.6794 18.3504 8.57248 18.2799 8.51567C18.0022 8.2922 17.7213 8.12369 17.3797 8.01738C17.4596 7.67739 17.5278 7.17899 17.5199 6.83801C18.0546 6.95669 19.521 7.22093 19.3848 6.25Z" fill="#D0B188"/>
<path d="M13.3772 13.9718C13.367 13.9685 13.357 13.965 13.3469 13.9615C13.0571 13.8579 12.7058 13.6904 12.43 13.5503C12.2027 13.4349 10.8816 12.6937 10.9845 12.4375C11.0667 12.3428 11.3637 12.4342 11.472 12.4664C12.2056 12.6841 12.908 12.994 13.5739 13.3697L13.5822 13.3758C13.7304 13.4837 14.6146 13.9677 14.4867 14.1938C14.3057 14.3457 13.5918 14.0353 13.3772 13.9718Z" fill="#B69873"/>
<path d="M10.8456 17.9861C10.5633 17.8514 9.19985 17.1513 9.23063 16.8299C9.24802 16.8038 9.25622 16.7994 9.28623 16.7895C9.5355 16.7073 10.5222 17.0967 10.7797 17.2102C10.9979 17.3063 11.2086 17.4157 11.4191 17.5272C11.5788 17.635 12.516 18.1398 12.3946 18.3773C12.1982 18.5337 11.2525 18.159 11.0185 18.0593C10.9666 18.0372 10.9008 18.0027 10.8456 17.9861Z" fill="#B69873"/>
<path d="M17.3797 8.01747C17.7213 8.12378 18.0022 8.29229 18.2799 8.51576C18.3505 8.57257 18.5152 8.67949 18.4996 8.77754C18.3739 8.91157 17.5555 8.67493 17.3881 8.62574C17.304 8.60103 17.1843 8.54537 17.104 8.52696C16.8471 8.4173 16.0757 8.0834 15.9257 7.86803C15.904 7.83685 15.8865 7.79851 15.8954 7.75972C15.9005 7.73755 15.9135 7.72177 15.9331 7.71058C16.1082 7.61053 17.1397 7.9439 17.3797 8.01747Z" fill="#B69873"/>
<path d="M9.20464 10.8313C9.51978 11.2231 9.33168 11.5151 9.03939 11.851C8.82942 12.0923 8.62297 12.334 8.42491 12.5854C8.11293 12.9814 7.83432 13.3952 7.60346 13.8437C7.46997 13.7999 6.84408 13.5874 7.09421 13.9989C7.14897 14.0891 7.32132 14.2321 7.40691 14.308C7.28135 14.6085 7.1982 14.9248 7.11398 15.2384C7.05968 15.4405 6.97458 15.5759 6.75486 15.606C6.41024 15.4631 6.39311 15.2163 6.45472 14.8737C6.68165 13.6121 7.42329 12.4862 8.22114 11.5089C8.3825 11.3113 8.56618 11.1022 8.76419 10.9416C8.90043 10.834 9.03814 10.807 9.20464 10.8313Z" fill="#F4E8CC"/>
<path d="M7.60347 13.8438C7.93264 13.9607 8.2533 14.1004 8.56298 14.262C8.89966 14.4346 10.1447 15.1772 10.2855 15.4801C10.2974 15.5058 10.3013 15.5255 10.298 15.5536C10.1862 15.785 9.06185 15.2959 8.85514 15.1962C8.34323 14.9506 7.85792 14.6531 7.40692 14.3081C7.32134 14.2322 7.14899 14.0891 7.09422 13.999C6.8441 13.5875 7.46999 13.8 7.60347 13.8438Z" fill="#B69873"/>
<path d="M11.3545 5.84699C11.5772 5.95931 11.7962 6.07864 12.0114 6.20481C12.3054 6.37871 13.4372 7.08805 13.5346 7.37751C13.5444 7.40652 13.5457 7.42881 13.5404 7.45879C13.4362 7.57006 13.0535 7.42437 12.926 7.38242C12.2421 7.15749 11.6595 6.7854 11.0697 6.38468C10.846 6.21703 10.6427 6.0237 10.4639 5.80863C10.3687 5.65374 10.4117 5.60457 10.5761 5.57813C10.7749 5.60439 11.1639 5.76668 11.3545 5.84699Z" fill="#B69873"/>
<path d="M10.4639 5.80849C10.6426 6.02357 10.8459 6.2169 11.0696 6.38454C10.7068 7.0998 10.4964 7.81352 10.2772 8.58104C10.232 8.73939 10.1649 8.75667 10.0296 8.81725C9.96144 8.74443 9.88627 8.65558 9.86976 8.55049C9.75497 7.81993 10.0466 6.89211 10.2947 6.20252C10.3283 6.10897 10.4236 5.87217 10.4639 5.80849Z" fill="#F4E8CC"/>
<path d="M10.5761 5.578C10.5803 5.55486 10.6407 5.42364 10.6588 5.39267C10.8682 5.03397 11.202 4.40231 11.6113 4.26275C11.7388 4.221 11.8391 4.23632 11.9569 4.29084C12.1025 4.35821 12.2504 4.59373 12.1771 4.75288C12.0948 4.93174 11.8907 5.10216 11.7683 5.26316C11.6359 5.43722 11.4663 5.64105 11.3614 5.83382L11.3544 5.84686C11.1638 5.76655 10.7749 5.60427 10.5761 5.578Z" fill="#F4E8CC"/>
</svg>
